<?xml version="1.0" encoding="utf-8"?>
<!-- Generator: Adobe Illustrator 24.1.2, SVG Export Plug-In . SVG Version: 6.00 Build 0)  -->
<svg version="1.1" id="Слой_3" xmlns="http://www.w3.org/2000/svg" xmlns:xlink="http://www.w3.org/1999/xlink" x="0px" y="0px"
	 viewBox="0 0 800 800" style="enable-background:new 0 0 800 800;" xml:space="preserve">
<style type="text/css">
	.st0{fill:none;stroke:#000000;stroke-miterlimit:10;}
	.st1{stroke:#000000;stroke-miterlimit:10;}
	.st2{fill:#FFFFFF;stroke:#1D1D1B;stroke-miterlimit:10;}
	.st3{fill:url(#SVGID_1_);stroke:#000000;stroke-miterlimit:10;}
</style>
<path class="st0" d="M208.7,331.9c0,32.4-26.3,58.7-58.7,58.7c-32.4,0-58.7-26.3-58.7-58.7s26.3-58.7,58.7-58.7
	C182.4,273.2,208.7,299.4,208.7,331.9z"/>
<path class="st0" d="M208.7,331.9c0,32.4-26.3,58.7-58.7,58.7c-32.4,0-58.7-26.3-58.7-58.7s26.3-58.7,58.7-58.7
	C182.4,273.2,208.7,299.4,208.7,331.9z"/>
<path class="st0" d="M254.7,345.4"/>
<path class="st1" d="M400,0C288.7,0,188,45.5,115.5,118.8C82.2,152.5,54.9,192,35.2,235.7C12.6,285.8,0,341.4,0,400
	c0,11.1,0.5,22,1.3,32.9C2,441.3,3,449.7,4.2,458c12.6,86.9,53.2,164.8,112.3,224.2c13.1,13.1,27.1,25.4,41.9,36.6
	c67.1,51,150.8,81.2,241.6,81.2c220.9,0,400-179.1,400-400S620.9,0,400,0z M163.4,655.6L163.4,655.6c-35.1-32.9-63.4-73-82.6-117.9
	C72.4,518,65.7,497.4,61,476c0,0,0,0,0,0c-3.8-17.2-6.3-34.8-7.5-52.8c-0.5-7.7-0.8-15.4-0.8-23.2c0-1.5,0-3,0-4.5
	c1.2-93.2,38.7-177.6,99-239.7c1.9-2,3.8-3.9,5.7-5.8l0,0c47.4,27.7,81.8,106.7,82.8,200.4l34.5,72.2l27.5,57.5h-72.7
	c-4.9,0-9.5,1.4-13.3,3.9c0,0,0,0,0,0c-6.8,4.4-11.4,12-11.4,20.8c0,0.8,0,1.6,0.1,2.4c0,0.5,0.1,0.9,0.2,1.3v0
	c0.3,2,0.8,3.9,1.6,5.7v0c0,0,0,0,0,0c0.3,1.3,0.7,2.6,0.9,4c2.3,10.1,3.4,20.7,3.4,31.5C211.2,592.7,192.5,631,163.4,655.6z
	 M403.6,750.9c-73.6,0-141.8-22.6-198.3-61.3c-0.7-0.5-1.4-1-2.1-1.4l0,0c35-28.8,57.9-75.9,57.9-129.2c0-9.4-0.7-18.7-2.1-27.7
	h84.6c13.6,0,24.7-11.1,24.7-24.7c0-3.4-0.7-6.6-1.9-9.5l0-0.1c-0.3-0.7-0.7-1.5-1-2.2l0,0l-75.4-157.7v0c0.3-6.6,0.3-13.4,0.2-20.2
	c-2.1-92.3-41.3-170.1-94.6-199.3l0,0c58.2-42.9,130.1-68.3,208-68.3c193.8,0,350.9,157.1,350.9,350.9S597.4,750.9,403.6,750.9z"/>
<path class="st2" d="M274.9,422.6l-34.5-72.2c-1-93.6-35.4-172.6-82.8-200.4l0,0c-1.9,1.9-3.8,3.8-5.7,5.8
	c-60.3,62.2-97.8,146.6-99,239.7c0,1.5,0,3,0,4.5c0,7.8,0.3,15.5,0.8,23.2c1.2,18,3.7,35.6,7.5,52.8c0,0,0,0,0,0
	c4.7,21.3,11.4,41.9,19.8,61.6c19.2,44.9,47.4,85,82.5,118l0,0c29.1-24.6,47.8-62.9,47.8-105.9c0-10.9-1.2-21.4-3.4-31.5
	c-0.3-1.3-0.6-2.7-0.9-4c0,0,0,0,0,0v0c-0.7-1.8-1.3-3.7-1.6-5.7v0c-0.1-0.4-0.1-0.9-0.2-1.3c-0.1-0.8-0.1-1.6-0.1-2.4
	c0-8.7,4.5-16.4,11.4-20.8c0,0,0,0,0,0c3.8-2.5,8.4-3.9,13.3-3.9h72.7L274.9,422.6z M150,390.5c-32.4,0-58.7-26.3-58.7-58.7
	s26.3-58.7,58.7-58.7c32.4,0,58.7,26.3,58.7,58.7S182.4,390.5,150,390.5z"/>
<linearGradient id="SVGID_1_" gradientUnits="userSpaceOnUse" x1="160.8312" y1="645.6135" x2="653.1389" y2="153.3057">
	<stop  offset="0" style="stop-color:#3F5CAF"/>
	<stop  offset="0.1155" style="stop-color:#485DAC"/>
	<stop  offset="0.3002" style="stop-color:#5F5FA5"/>
	<stop  offset="0.5308" style="stop-color:#856398"/>
	<stop  offset="0.7956" style="stop-color:#B96888"/>
	<stop  offset="1" style="stop-color:#E66D79"/>
</linearGradient>
<path class="st3" d="M754.5,400c0,193.8-157.1,350.9-350.9,350.9c-73.6,0-141.8-22.6-198.3-61.3c-0.7-0.5-1.4-1-2.1-1.4l0,0
	c35-28.8,57.9-75.9,57.9-129.2c0-9.4-0.7-18.7-2.1-27.7h84.6c13.6,0,24.7-11.1,24.7-24.7c0-3.4-0.7-6.6-1.9-9.5l0-0.1
	c-0.3-0.7-0.7-1.5-1-2.2l0,0l-75.4-157.7v0c0.3-6.6,0.3-13.4,0.2-20.2c-2.1-92.3-41.3-170.1-94.6-199.3l0,0
	c58.2-42.9,130.1-68.3,208-68.3C597.4,49.1,754.5,206.2,754.5,400z"/>
<line class="st0" x1="163.3" y1="655.6" x2="163.3" y2="655.6"/>
<line class="st0" x1="157.5" y1="150" x2="157.5" y2="150"/>
<line class="st0" x1="195.6" y1="117.4" x2="195.6" y2="117.4"/>
<path class="st1" d="M208.7,331.9c0,32.4-26.3,58.7-58.7,58.7c-32.4,0-58.7-26.3-58.7-58.7s26.3-58.7,58.7-58.7
	C182.4,273.2,208.7,299.4,208.7,331.9z"/>
</svg>
